<svg class="animated" id="freepik_stories-grandma" xmlns="http://www.w3.org/2000/svg" xmlns:xlink="http://www.w3.org/1999/xlink" viewBox="0 0 500 500" version="1.1" xmlns:svgjs="http://svgjs.com/svgjs"><style>svg#freepik_stories-grandma:not(.animated) .animable {opacity: 0;}svg#freepik_stories-grandma.animated #freepik--background-simple--inject-39 {animation: 1s 1 forwards cubic-bezier(.36,-0.01,.5,1.38) slideUp;animation-delay: 0s;}svg#freepik_stories-grandma.animated #freepik--Window--inject-39 {animation: 1s 1 forwards cubic-bezier(.36,-0.01,.5,1.38) slideUp;animation-delay: 0s;}svg#freepik_stories-grandma.animated #freepik--Plant--inject-39 {animation: 1s 1 forwards cubic-bezier(.36,-0.01,.5,1.38) slideLeft;animation-delay: 0s;}svg#freepik_stories-grandma.animated #freepik--Floor--inject-39 {animation: 1s 1 forwards cubic-bezier(.36,-0.01,.5,1.38) lightSpeedRight;animation-delay: 0s;}svg#freepik_stories-grandma.animated #freepik--Character--inject-39 {animation: 1s 1 forwards cubic-bezier(.36,-0.01,.5,1.38) slideUp,1.5s Infinite  linear wind;animation-delay: 0s,0.5s;}            @keyframes slideUp {                0% {                    opacity: 0;                    transform: translateY(30px);                }                100% {                    opacity: 1;                    transform: inherit;                }            }                    @keyframes slideLeft {                0% {                    opacity: 0;                    transform: translateX(-30px);                }                100% {                    opacity: 1;                    transform: translateX(0);                }            }                    @keyframes lightSpeedRight {              from {                transform: translate3d(50%, 0, 0) skewX(-20deg);                opacity: 0;              }              60% {                transform: skewX(10deg);                opacity: 1;              }              80% {                transform: skewX(-2deg);              }              to {                opacity: 1;                transform: translate3d(0, 0, 0);              }            }                    @keyframes wind {                0% {                    transform: rotate( 0deg );                }                25% {                    transform: rotate( 1deg );                }                75% {                    transform: rotate( -1deg );                }            }        </style><g id="freepik--background-simple--inject-39" class="animable" style="transform-origin: 241.134px 250.609px;"><g id="ely65o5h0g32d"><path d="M67.93,167.09s-27.88,72,11.3,144.5S199.11,422.39,263.7,455.14s131.66,16.8,163.53-36.84-11.84-91.93-11.9-168.42,11.45-96.74-30-161.36-143.06-78.93-219.9-31S67.93,167.09,67.93,167.09Z" style="fill: rgb(255, 255, 255); opacity: 0.7; transform-origin: 248.588px 250.609px;" class="animable"></path></g><path d="M81.07,450.94S-8.34,328.54,47,234.48,212.48,205,233.42,117.18,330.84,15,403.36,124.78s55.17,262.45,16.77,326.16Z" style="fill: rgb(146, 227, 169); transform-origin: 241.134px 248.899px;" id="el8p1dhcahkxs" class="animable"></path><g id="ellugt9m8kuc9"><path d="M81.07,450.94S-8.34,328.54,47,234.48,212.48,205,233.42,117.18,330.84,15,403.36,124.78s55.17,262.45,16.77,326.16Z" style="fill: rgb(255, 255, 255); opacity: 0.7; transform-origin: 241.134px 248.899px;" class="animable"></path></g></g><g id="freepik--Window--inject-39" class="animable" style="transform-origin: 195.765px 173.23px;"><polyline points="92.74 235.03 92.74 60.58 107.57 60.58" style="fill: none; stroke: rgb(38, 50, 56); stroke-linecap: round; stroke-linejoin: round; transform-origin: 100.155px 147.805px;" id="el2i1udg6lmcd" class="animable"></polyline><line x1="92.74" y1="263.55" x2="92.74" y2="257.19" style="fill: none; stroke: rgb(38, 50, 56); stroke-linecap: round; stroke-linejoin: round; transform-origin: 92.74px 260.37px;" id="eljicfmzat8fl" class="animable"></line><polyline points="145.72 60.58 298.79 60.58 298.79 285.88 92.74 285.88" style="fill: none; stroke: rgb(38, 50, 56); stroke-linecap: round; stroke-linejoin: round; transform-origin: 195.765px 173.23px;" id="elibibucewjnf" class="animable"></polyline><line x1="126.96" y1="60.58" x2="140.41" y2="60.58" style="fill: none; stroke: rgb(38, 50, 56); stroke-linecap: round; stroke-linejoin: round; transform-origin: 133.685px 60.58px;" id="el76hxp8jv032" class="animable"></line><rect x="100.49" y="68.32" width="190.55" height="209.83" style="fill: none; stroke: rgb(38, 50, 56); stroke-linecap: round; stroke-linejoin: round; transform-origin: 195.765px 173.235px;" id="el9w65m9as5q7" class="animable"></rect><polyline points="282.18 83.04 282.18 164.66 109.35 164.66 109.35 157.21" style="fill: none; stroke: rgb(38, 50, 56); stroke-linecap: round; stroke-linejoin: round; transform-origin: 195.765px 123.85px;" id="el5u70x59xq0k" class="animable"></polyline><polyline points="109.35 139.75 109.35 76.42 282.18 76.42" style="fill: none; stroke: rgb(38, 50, 56); stroke-linecap: round; stroke-linejoin: round; transform-origin: 195.765px 108.085px;" id="el6zk7zlc463q" class="animable"></polyline><line x1="109.35" y1="151.48" x2="109.35" y2="144.24" style="fill: none; stroke: rgb(38, 50, 56); stroke-linecap: round; stroke-linejoin: round; transform-origin: 109.35px 147.86px;" id="elk69yxrf9zu" class="animable"></line><line x1="252.99" y1="173.23" x2="291.04" y2="173.23" style="fill: none; stroke: rgb(38, 50, 56); stroke-linecap: round; stroke-linejoin: round; transform-origin: 272.015px 173.23px;" id="elrah4erfbujc" class="animable"></line><line x1="239.46" y1="173.23" x2="244.85" y2="173.23" style="fill: none; stroke: rgb(38, 50, 56); stroke-linecap: round; stroke-linejoin: round; transform-origin: 242.155px 173.23px;" id="elalotbwoyspb" class="animable"></line><line x1="100.49" y1="173.23" x2="233.03" y2="173.23" style="fill: none; stroke: rgb(38, 50, 56); stroke-linecap: round; stroke-linejoin: round; transform-origin: 166.76px 173.23px;" id="el419dnce5bct" class="animable"></line><polyline points="186.19 164.66 186.19 160.72 202.12 160.72 202.12 162.96 195.76 162.96 195.76 164.66" style="fill: none; stroke: rgb(38, 50, 56); stroke-linecap: round; stroke-linejoin: round; transform-origin: 194.155px 162.69px;" id="el5yinnyi71bv" class="animable"></polyline><path d="M100.82,243.56s2.64,2,4.5,14.1c0,0,3.2-19.33,7.08-19.63s3.08,12.58,3.08,12.58.65-6.35,3.69-6.06,0,13.11,0,13.11,3.64-10,7.1-9.82S124,266,124,266s8.86-6.42,12.45-3.28-2,11.06-2,11.06,12.7-2.76,14.68,4.69" style="fill: none; stroke: rgb(38, 50, 56); stroke-linecap: round; stroke-linejoin: round; transform-origin: 124.975px 258.247px;" id="elomudufe47l" class="animable"></path><path d="M149.11,271.2s5.54-3.63,9.89-1.94c0,0-2.77-4.22,0-6.8s6.33,6.8,6.33,6.8.4-15.71,5.93-14.92,0,14.92,0,14.92,9.89-8.76,12.27-5.71S182,271.2,182,271.2s5.93-1.9,10.28,2.53c0,0,6.63-6.77,14-7.74,0,0-4.9-14.22-2.53-17.09s6.69,12.41,6.69,12.41,1.88-9.94,8.07-10.7c0,0-5.15-2.81-3.62-7.05s8.64,1,8.64,1-2.92-7.47,1.71-9.52,6.56,6.25,6.56,6.25,1.28-8.7,6.73-8.22,3.67,10.5,3.67,10.5,5.14-8,7.88-7.15c5.5,1.62,3.83,14.2,3.83,14.2s7.66-5.33,9.64-2.88c2.13,2.65-8,9.46-8,9.46s7.6.84,12.33,5.27" style="fill: none; stroke: rgb(38, 50, 56); stroke-linecap: round; stroke-linejoin: round; transform-origin: 208.495px 253.39px;" id="elrpmvx7xv5a" class="animable"></path><path d="M291,246.43s-.88-8-8.86-8.4,2.19,17.5,2.19,17.5-6.58-5.45-8.95-3.77,6.76,10.91,6.76,10.91-4.38-4-9-2.79,2.63,14.1,2.63,14.1a32.92,32.92,0,0,0-20.29,2.37" style="fill: none; stroke: rgb(38, 50, 56); stroke-linecap: round; stroke-linejoin: round; transform-origin: 273.24px 257.187px;" id="el2yw4jovi9dy" class="animable"></path></g><g id="freepik--Plant--inject-39" class="animable" style="transform-origin: 127.705px 373.485px;"><path d="M122.31,405.89s-2.92-25.4-12.62-47.43-1-26.73,4.23-21.23,10.89,26.17,10.89,26.17-2.57-21.63-1.53-33.15c1.53-16.88,4.16-30.07,11.94-28,9,2.41-3.78,35-.4,69.15,0,0,11.85-18.83,16-34.93s14.87-9.12,11.15,5.28-18.12,22.45-23.7,38.07c0,0,18.55-17.16,24.47-10.4,3.34,3.81-5.1,6.55-8.77,8.31-17.76,8.5-22.31,29.77-22.31,29.77Z" style="fill: rgb(146, 227, 169); stroke: rgb(38, 50, 56); stroke-linecap: round; stroke-linejoin: round; transform-origin: 134.409px 354.768px;" id="elp779ykzycdo" class="animable"></path><g id="elv6dbao5udde"><path d="M122.31,405.89s-2.92-25.4-12.62-47.43-1-26.73,4.23-21.23,10.89,26.17,10.89,26.17-2.57-21.63-1.53-33.15c1.53-16.88,4.16-30.07,11.94-28,9,2.41-3.78,35-.4,69.15,0,0,11.85-18.83,16-34.93s14.87-9.12,11.15,5.28-18.12,22.45-23.7,38.07c0,0,18.55-17.16,24.47-10.4,3.34,3.81-5.1,6.55-8.77,8.31-17.76,8.5-22.31,29.77-22.31,29.77Z" style="fill-opacity: 0.7; stroke: rgb(38, 50, 56); stroke-miterlimit: 10; opacity: 0.2; transform-origin: 134.409px 354.768px;" class="animable"></path></g><path d="M133.1,400.4s-1.47-26.57,8.23-48.6,1-23.74-4.15-18.23-9.15,34-9.15,34-4.56-25.54-2.49-43.2,1.94-27.6-5.34-27.61c-9.29,0-7.12,43.24.4,69.15,0,0-11.85-18.83-16-34.93s-14.88-9.12-11.16,5.28,18.13,22.45,23.7,38.07c0,0-18.55-17.16-24.47-10.4-3.34,3.81,5.11,6.55,8.77,8.31,17.76,8.5,22.31,29.77,22.31,29.77Z" style="fill: rgb(146, 227, 169); stroke: rgb(38, 50, 56); stroke-linecap: round; stroke-linejoin: round; transform-origin: 118.808px 349.385px;" id="eljeik7ybx7wn" class="animable"></path><path d="M136.42,350.7c-8.23,18.58-8.7,45.69-8.7,45.69s-10.84-53.86-8.11-76.55" style="fill: none; stroke: rgb(38, 50, 56); stroke-linecap: round; stroke-linejoin: round; transform-origin: 127.795px 358.115px;" id="elw6n7yn5d5ls" class="animable"></path><path d="M100.82,340s12.09,25.52,23.15,35.3" style="fill: none; stroke: rgb(38, 50, 56); stroke-linecap: round; stroke-linejoin: round; transform-origin: 112.395px 357.65px;" id="eleoyoszmm97d" class="animable"></path><path d="M100.82,367.51s20.44,13.15,25.45,21.21" style="fill: none; stroke: rgb(38, 50, 56); stroke-linecap: round; stroke-linejoin: round; transform-origin: 113.545px 378.115px;" id="elezgx4zg5jlt" class="animable"></path><polygon points="99.49 389.98 156.4 389.98 152 450.21 103.89 450.21 99.49 389.98" style="fill: rgb(38, 50, 56); transform-origin: 127.945px 420.095px;" id="el90qp4wlenoa" class="animable"></polygon></g><g id="freepik--Floor--inject-39" class="animable" style="transform-origin: 252.7px 450.37px;"><line x1="58.31" y1="450.37" x2="447.09" y2="450.37" style="fill: none; stroke: rgb(38, 50, 56); stroke-linecap: round; stroke-linejoin: round; transform-origin: 252.7px 450.37px;" id="elum85587m54f" class="animable"></line></g><g id="freepik--Character--inject-39" class="animable animator-active" style="transform-origin: 324.219px 269.136px;"><path d="M255.38,402.61a15.16,15.16,0,0,1,.13,7.06s-20.13,1.52-33.69-3.11-14-9.75-14-9.75l5.26-6.63" style="fill: rgb(38, 50, 56); transform-origin: 231.842px 400.044px;" id="elzbocq0n91ct" class="animable"></path><path d="M239.77,373.38s-.05,10.42-4.63,12-16.6-4.51-22.08,4.84,36.59,19,44.33,14.28c0,0,1.87-8.5.42-14.92s0-14.39,0-14.39Z" style="fill: rgb(255, 255, 255); stroke: rgb(38, 50, 56); stroke-linecap: round; stroke-linejoin: round; transform-origin: 235.465px 389.559px;" id="elhbeqiwowdpj" class="animable"></path><path d="M316.69,267.3s-20.14-4.09-26.39,1.68c0,0-27.5-15.57-65.09,2s5.84,103.68,5.84,103.68,20.6,11.07,34.89,6.46l-1.7-11.66-3.73-2.1s11.68-5.67,13.4-29.26c0,0,46.41,8.33,49,8.8S316.69,267.3,316.69,267.3Z" style="fill: rgb(117, 117, 117); transform-origin: 266.64px 322.43px;" id="el30ry495kb6q" class="animable"></path><g style="clip-path: url(&quot;#freepik--clip-path--inject-39&quot;); transform-origin: 275.362px 325.756px;" id="eljtxyd9s6yrn" class="animable"><g id="el0i5pv56tzsql"><path d="M322.87,346.89c-2.55-.47-49-8.8-49-8.8-1.72,23.59-13.4,29.26-13.4,29.26l3.73,2.1,1.7,11.66c-7.81,2.52-17.51.35-24.69-2.13a23.3,23.3,0,0,1-4-8.26l2.41-6.06c-13.19-12.59-5.28-44.91,2.56-67.05,7.74-21.88,43.77-27.07,44.59-27.18-.21.68-8.61,26.83-5.21,40.85,3.44,14.21,21.18,17,21.18,17-4.12-27.67,7-59,7-59l9.88,26.36C321.88,318.6,324.39,347.17,322.87,346.89Z" style="fill-opacity: 0.7; opacity: 0.2; transform-origin: 277.947px 325.756px;" class="animable"></path></g><path d="M273.91,338.09s-7.12-16-2.64-25.37" style="fill: none; stroke: rgb(38, 50, 56); stroke-linecap: round; stroke-linejoin: round; transform-origin: 271.85px 325.405px;" id="el4nkeoa0ve9i" class="animable"></path><path d="M306.35,296s-4.53,39.82,11.34,48.79" style="fill: none; stroke: rgb(38, 50, 56); stroke-linecap: round; stroke-linejoin: round; transform-origin: 311.721px 320.395px;" id="elumqywzbgxe" class="animable"></path><path d="M279.77,278.88s-25,29.53-19.93,48" style="fill: none; stroke: rgb(38, 50, 56); stroke-linecap: round; stroke-linejoin: round; transform-origin: 269.466px 302.88px;" id="elm87kyyckpo" class="animable"></path><path d="M260.51,367.35s-24.26,1.5-33.12-9.21" style="fill: none; stroke: rgb(38, 50, 56); stroke-linecap: round; stroke-linejoin: round; transform-origin: 243.95px 362.781px;" id="eldngdsy8f8rd" class="animable"></path></g><path d="M316.69,267.3s-20.14-4.09-26.39,1.68c0,0-27.5-15.57-65.09,2s5.84,103.68,5.84,103.68,20.6,11.07,34.89,6.46l-1.7-11.66-3.73-2.1s11.68-5.67,13.4-29.26c0,0,46.41,8.33,49,8.8S316.69,267.3,316.69,267.3Z" style="fill: none; stroke: rgb(38, 50, 56); stroke-linecap: round; stroke-linejoin: round; transform-origin: 266.64px 322.43px;" id="elo1p12rsj7a" class="animable"></path><path d="M349.71,188.76s-15.34,9.6-19.78,16.76S317.86,227,317.86,227l-22.43-9.17-16.95,12.66s10.13,32.62,24.95,35.34,59.94-37.93,59.94-37.93Z" style="fill: rgb(146, 227, 169); transform-origin: 320.925px 227.36px;" id="el72978vgn24h" class="animable"></path><g style="clip-path: url(&quot;#freepik--clip-path-2--inject-39&quot;); transform-origin: 320.925px 227.36px;" id="el1er13kalr86" class="animable"><g id="eli1tuf175ev"><path d="M349.71,188.76s-15.34,9.6-19.78,16.76S317.86,227,317.86,227l-22.43-9.17-16.95,12.66s10.13,32.62,24.95,35.34,59.94-37.93,59.94-37.93Z" style="fill-opacity: 0.7; opacity: 0.2; transform-origin: 320.925px 227.36px;" class="animable"></path></g></g><path d="M349.71,188.76s-15.34,9.6-19.78,16.76S317.86,227,317.86,227l-22.43-9.17-16.95,12.66s10.13,32.62,24.95,35.34,59.94-37.93,59.94-37.93Z" style="fill: none; stroke: rgb(38, 50, 56); stroke-linecap: round; stroke-linejoin: round; transform-origin: 320.925px 227.36px;" id="el5vdspnplbb8" class="animable"></path><path d="M276.73,214.94s4.39-17.46,15.86-50.29l2.58.71S282.94,202.67,276.73,214.94Z" style="fill: rgb(117, 117, 117); stroke: rgb(38, 50, 56); stroke-linecap: round; stroke-linejoin: round; transform-origin: 285.95px 189.795px;" id="el7linxmzerz9" class="animable"></path><path d="M267.86,191.06s17.33-4.89,51.51-11.28l.68,2.59S281.59,190.33,267.86,191.06Z" style="fill: rgb(153, 153, 153); stroke: rgb(38, 50, 56); stroke-linecap: round; stroke-linejoin: round; transform-origin: 293.955px 185.42px;" id="elyzzlcb0792" class="animable"></path><path d="M302.08,190.06s-6.46-7-8.48-7.56-5,2.74-5,2.74-8.57-.24-11,.28-10.46,13.71-13,29.65-5.95,25-14.53,29.38c-19.08,9.86-34.45,31.67-29.23,53.54s-6.12,46.92-6,51.66,24.27,8,29.38,5.44,15.94-.06,18.55-.1,11.64-32.36,10-53.79,17.61-29.77,20.59-41.52S306.84,195.25,302.08,190.06Z" style="fill: rgb(191, 191, 191); stroke: rgb(38, 50, 56); stroke-miterlimit: 10; transform-origin: 259.069px 269.262px;" id="elts65n8q3h1" class="animable"></path><path d="M308.64,198.7a82.63,82.63,0,0,0-2.18-10.52c-1.08-3.09-6-7.17-7.14-6.27a9.39,9.39,0,0,0-2,3s-4.05.49-3.93,3c0,0-4,1.56-4.07,4.13,0,0-3.43-.05-2.29,5.47a15.93,15.93,0,0,0,4.12,8.22Z" style="fill: rgb(255, 255, 255); stroke: rgb(38, 50, 56); stroke-linecap: round; stroke-linejoin: round; transform-origin: 297.719px 193.757px;" id="ela5repymwmso" class="animable"></path><path d="M346.61,174.26s14.6,3.22,17.78,13.86l16.92-18.47s-7-2.83-5.56-13.53S346.61,174.26,346.61,174.26Z" style="fill: rgb(255, 255, 255); stroke: rgb(38, 50, 56); stroke-linecap: round; stroke-linejoin: round; transform-origin: 363.96px 170.93px;" id="elpvfgxjh2ys" class="animable"></path><path d="M379.43,158.88s5.92-6.19,5.8-11.23c-.66-26.62-8.13-44.1-43.4-33.73-16.48,4.85-12.66,33.57-12.66,33.57s-4.47,6.75-3.34,8.82c.48.89,4,.86,4,.86a24.19,24.19,0,0,0,3,6.38l-1.78.81c1.29,5.41,3.43,10.77,7,12.16,3.8,1.45,8.09,1.83,18-1.38" style="fill: rgb(255, 255, 255); stroke: rgb(38, 50, 56); stroke-linecap: round; stroke-linejoin: round; transform-origin: 355.439px 144.244px;" id="elufaafvz9b3d" class="animable"></path><path d="M330.53,132.28s5.19-1.72,8.78,5.17" style="fill: none; stroke: rgb(38, 50, 56); stroke-linecap: round; stroke-linejoin: round; transform-origin: 334.92px 134.77px;" id="el426ys9p3i9" class="animable"></path><path d="M334.47,141.88c.41,1.15.12,2.31-.65,2.58s-1.72-.43-2.13-1.58-.12-2.3.64-2.58S334.06,140.74,334.47,141.88Z" style="fill: rgb(38, 50, 56); transform-origin: 333.08px 142.379px;" id="el35k22qq8wy9" class="animable"></path><path d="M332.8,163.55s5.21-1.74,5.58-3.65" style="fill: none; stroke: rgb(38, 50, 56); stroke-linecap: round; stroke-linejoin: round; transform-origin: 335.59px 161.725px;" id="elqmrcr9t0idf" class="animable"></path><path d="M330.76,150.11s-2.13,6.13,10.12,9.73" style="fill: none; stroke: rgb(38, 50, 56); stroke-linecap: round; stroke-linejoin: round; transform-origin: 335.749px 154.975px;" id="elwfrxmqzhsw" class="animable"></path><path d="M335,146.81c1.08,3,.51,6-1.27,6.61s-4.09-1.29-5.17-4.3-.51-6,1.27-6.61S333.88,143.8,335,146.81Z" style="fill: rgb(191, 191, 191); stroke: rgb(38, 50, 56); stroke-miterlimit: 10; transform-origin: 331.78px 147.965px;" id="elc8wmambu5ed" class="animable"></path><path d="M335.42,142.32s2.74-.18,3.85-1.26" style="fill: none; stroke: rgb(38, 50, 56); stroke-linecap: round; stroke-linejoin: round; transform-origin: 337.345px 141.69px;" id="elska7rmjj81k" class="animable"></path><path d="M335.47,144.53a2,2,0,0,1,1.95.29" style="fill: none; stroke: rgb(38, 50, 56); stroke-linecap: round; stroke-linejoin: round; transform-origin: 336.445px 144.608px;" id="elqeauwwgbgqi" class="animable"></path><path d="M330.28,137.68a5,5,0,0,0,2,4.14" style="fill: none; stroke: rgb(38, 50, 56); stroke-linecap: round; stroke-linejoin: round; transform-origin: 331.279px 139.75px;" id="el7uqhje5ft4q" class="animable"></path><path d="M331.17,125s-5.11-11,11.64-17.51,35-4.48,43.38,10.13,5.45,35.69-7.67,43.09-15.66-3.17-15.66-3.17,6.67-7,2.13-13.81-9.69,2.59-9.69,2.59-9.91-3.74-11-16.45C344.31,129.82,338.59,122,331.17,125Z" style="fill: rgb(191, 191, 191); stroke: rgb(38, 50, 56); stroke-miterlimit: 10; transform-origin: 360.671px 133.653px;" id="el9lecmvmbo86" class="animable"></path><path d="M372.35,105.91s-2.9-12.24,7.61-17.25,22.57,5.71,19.39,15.67-14.43,11.24-14.43,11.24S379,108.74,372.35,105.91Z" style="fill: rgb(191, 191, 191); stroke: rgb(38, 50, 56); stroke-miterlimit: 10; transform-origin: 385.926px 101.478px;" id="el3g2e19ormxp" class="animable"></path><path d="M353.66,108.91a33.79,33.79,0,0,1,5.72-.94" style="fill: none; stroke: rgb(255, 255, 255); stroke-linecap: round; stroke-linejoin: round; transform-origin: 356.52px 108.44px;" id="elnp50ukg6ma" class="animable"></path><path d="M339.27,121a17.16,17.16,0,0,1,7.23-9" style="fill: none; stroke: rgb(255, 255, 255); stroke-linecap: round; stroke-linejoin: round; transform-origin: 342.885px 116.5px;" id="el356mdgw3aru" class="animable"></path><path d="M346.61,126.7s6.16-12.8,28.51-12.21" style="fill: none; stroke: rgb(255, 255, 255); stroke-linecap: round; stroke-linejoin: round; transform-origin: 360.865px 120.585px;" id="elc0yjgb38p3n" class="animable"></path><path d="M364.43,132.49c6.89-3.46,13.23-8.51,16.88-15.42" style="fill: none; stroke: rgb(255, 255, 255); stroke-linecap: round; stroke-linejoin: round; transform-origin: 372.87px 124.78px;" id="elaisvignhbuo" class="animable"></path><path d="M351.19,137.2a50.88,50.88,0,0,0,7.15-2.09" style="fill: none; stroke: rgb(255, 255, 255); stroke-linecap: round; stroke-linejoin: round; transform-origin: 354.765px 136.155px;" id="ellfofafsmi9r" class="animable"></path><path d="M385,130.36a33.51,33.51,0,0,0,.24-6.17" style="fill: none; stroke: rgb(255, 255, 255); stroke-linecap: round; stroke-linejoin: round; transform-origin: 385.144px 127.275px;" id="elws8ityh173s" class="animable"></path><path d="M369.58,153.61c6.51-2.23,11.76-11,13.88-17" style="fill: none; stroke: rgb(255, 255, 255); stroke-linecap: round; stroke-linejoin: round; transform-origin: 376.52px 145.11px;" id="el2wq6d1fvz55" class="animable"></path><path d="M369.58,159.9A23.07,23.07,0,0,0,384.89,150" style="fill: none; stroke: rgb(255, 255, 255); stroke-linecap: round; stroke-linejoin: round; transform-origin: 377.235px 154.95px;" id="elxxu2suy89a9" class="animable"></path><path d="M376.52,103.92s0-14.52,9.41-13.56" style="fill: none; stroke: rgb(255, 255, 255); stroke-linecap: round; stroke-linejoin: round; transform-origin: 381.225px 97.1172px;" id="elfceerkxe0gv" class="animable"></path><path d="M390.89,92s6.13,9.29-9.66,15" style="fill: none; stroke: rgb(255, 255, 255); stroke-linecap: round; stroke-linejoin: round; transform-origin: 386.646px 99.5px;" id="el0uf4l48mwqmh" class="animable"></path><path d="M385.28,112s10.66-2,12.39-8.11" style="fill: none; stroke: rgb(255, 255, 255); stroke-linecap: round; stroke-linejoin: round; transform-origin: 391.475px 107.945px;" id="elsg8wap3vb6" class="animable"></path><path d="M331.26,143.57l-1.44,5.89a3.81,3.81,0,0,0,1.44,2l1.54-6.35S332.74,144.63,331.26,143.57Z" style="fill: rgb(255, 255, 255); transform-origin: 331.31px 147.515px;" id="elf0oq9mtraqk" class="animable"></path><path d="M333.48,146.49l-1.22,5.29s1,.54,1.62-1.14S333.48,146.49,333.48,146.49Z" style="fill: rgb(255, 255, 255); transform-origin: 333.17px 149.176px;" id="elaq3957221y9" class="animable"></path><path d="M381.31,169.65s-.66-6.56-2.38-6.69-19.21,17.1-28.12,19.9-4.05,14.31-4.05,14.31-13.82,11.76-11.24,28.07,14.69,12.37,14.69,12.37Z" style="fill: rgb(146, 227, 169); transform-origin: 358.255px 200.494px;" id="ely8gmowl9iz" class="animable"></path><g style="clip-path: url(&quot;#freepik--clip-path-3--inject-39&quot;); transform-origin: 358.279px 200.494px;" id="el92wog7a98dq" class="animable"><g id="el964or0jcgte"><path d="M381.31,169.65l-28,61.27-3.06,6.69s-9.51,3.1-13.47-7.56a24.56,24.56,0,0,1-1.22-4.81,27,27,0,0,1,1.55-13.94,38,38,0,0,1,9.69-14.13s-4.87-11.52,4.05-14.31,26.41-20,28.12-19.9c.73,0,1.26,1.26,1.64,2.63A28.53,28.53,0,0,1,381.31,169.65Z" style="fill: rgb(255, 255, 255); opacity: 0.6; transform-origin: 358.279px 200.494px;" class="animable"></path></g><g id="elpcfjgw2qv57"><path d="M381.31,169.65l-28,61.27c-3.34.1-11.95-.52-16.53-.87a24.56,24.56,0,0,1-1.22-4.81,27,27,0,0,1,1.55-13.94c6.1-3.63,10.21-10.81,10.21-10.81s1-3.91,7.2-13.67c4.56-7.16,18.83-16.68,26.09-21.23A28.53,28.53,0,0,1,381.31,169.65Z" style="fill-opacity: 0.7; opacity: 0.2; transform-origin: 358.279px 198.26px;" class="animable"></path></g></g><path d="M381.31,169.65s-.66-6.56-2.38-6.69-19.21,17.1-28.12,19.9-4.05,14.31-4.05,14.31-13.82,11.76-11.24,28.07,14.69,12.37,14.69,12.37Z" style="fill: none; stroke: rgb(38, 50, 56); stroke-linecap: round; stroke-linejoin: round; transform-origin: 358.255px 200.494px;" id="ellb27b8i9c9" class="animable"></path><path d="M406.84,201.6c9.05,37.85-30.31,142.92-46.51,151.46l-40.28-4.25s-37.52-92,7.05-107.32c0,0,11.89-43.29,57.72-69.63C384.82,171.86,401.18,177.93,406.84,201.6Z" style="fill: rgb(146, 227, 169); transform-origin: 356.728px 262.46px;" id="elvu4uw0pvv39" class="animable"></path><g style="clip-path: url(&quot;#freepik--clip-path-4--inject-39&quot;); transform-origin: 356.732px 262.805px;" id="elrt7k8g9xzv" class="animable"><g id="el3c518z8vop3"><path d="M342.75,270.69s10,17.26,27.66,15.49c0,0-15.05,17.22-29.53,13.26s-22.66-24.79-22.66-24.79-1.52,19.82-11.17,27.46c-4.05-25.24-2.59-52.82,20.05-60.62,0,0,6-22,26.15-44.21,12.44-10.22,26.12-19.93,33.06-24.73,3,1.54,10,6,15.41,15.65-15.11.53-32.14,18.4-32.14,18.4-8.92-7-17.88,1.77-22.44,7.65,6.9-1.87,12.91-2.51,16.23-1.32,10.23,3.7,17.94,27.7,17.94,27.7S368.81,274.08,342.75,270.69Z" style="fill-opacity: 0.7; opacity: 0.2; transform-origin: 353.501px 237.33px;" class="animable"></path></g><g id="elukse2969nvn"><path d="M360.33,353.06l-40.28-4.25s-2.89-7.08-6.11-17.63a26.41,26.41,0,0,1,7,1.48c13.25,4.47,38.7-18.45,48.65-35.33s28.55-61.45,28.55-61.45-7.91-10.81-1.32-16.35c4.45-3.73,7.57-14.56,9.14-21.24.32,1.06.62,2.17.89,3.31C415.89,239.45,376.53,344.52,360.33,353.06Z" style="fill-opacity: 0.7; opacity: 0.2; transform-origin: 361.061px 275.675px;" class="animable"></path></g><path d="M387,248.87a8.11,8.11,0,0,0,3.92-2.71" style="fill: none; stroke: rgb(38, 50, 56); stroke-linecap: round; stroke-linejoin: round; transform-origin: 388.96px 247.515px;" id="elenvk54ki27f" class="animable"></path><path d="M364,248.54A64.11,64.11,0,0,0,380.53,250" style="fill: none; stroke: rgb(38, 50, 56); stroke-linecap: round; stroke-linejoin: round; transform-origin: 372.265px 249.298px;" id="elv4khup4fvsq" class="animable"></path><path d="M360.66,251.7s8.61,10,16.58,9" style="fill: none; stroke: rgb(38, 50, 56); stroke-linecap: round; stroke-linejoin: round; transform-origin: 368.95px 256.235px;" id="elgwyqauph9k" class="animable"></path><path d="M395.07,179.78s-2.54,7.39-11.61,13" style="fill: none; stroke: rgb(38, 50, 56); stroke-linecap: round; stroke-linejoin: round; transform-origin: 389.265px 186.28px;" id="el5tmqqfstpsb" class="animable"></path><path d="M354.09,287.36a21.75,21.75,0,0,0,16.32-1.18" style="fill: none; stroke: rgb(38, 50, 56); stroke-linecap: round; stroke-linejoin: round; transform-origin: 362.25px 287.3px;" id="elgvxauq4qr3q" class="animable"></path><path d="M326.85,260.25c4.92,9.39,12.12,18.79,21.27,24.33" style="fill: none; stroke: rgb(38, 50, 56); stroke-linecap: round; stroke-linejoin: round; transform-origin: 337.485px 272.415px;" id="elb1tpqjz2cu" class="animable"></path><path d="M325.05,317.63a19.79,19.79,0,0,0,3.19,3.7" style="fill: none; stroke: rgb(38, 50, 56); stroke-linecap: round; stroke-linejoin: round; transform-origin: 326.645px 319.48px;" id="eligdjogv1psc" class="animable"></path><path d="M320.05,266C317,281,318,296,321.92,311.42" style="fill: none; stroke: rgb(38, 50, 56); stroke-linecap: round; stroke-linejoin: round; transform-origin: 320.091px 288.71px;" id="el2py2cf43sqh" class="animable"></path></g><path d="M406.84,201.6c9.05,37.85-30.31,142.92-46.51,151.46l-40.28-4.25s-37.52-92,7.05-107.32c0,0,11.89-43.29,57.72-69.63C384.82,171.86,401.18,177.93,406.84,201.6Z" style="fill: none; stroke: rgb(38, 50, 56); stroke-linecap: round; stroke-linejoin: round; transform-origin: 356.728px 262.46px;" id="el8nqxmkn9hsy" class="animable"></path><path d="M339.89,214.77s10.68-29.06,40.4-47.67c0,0,4.19-.35,6,1.11a11.28,11.28,0,0,1,2.78,4.44l6,5s-.77,4.19-28.33,25.81C366.74,203.5,356.3,194,339.89,214.77Z" style="fill: rgb(146, 227, 169); stroke: rgb(38, 50, 56); stroke-linecap: round; stroke-linejoin: round; transform-origin: 367.48px 190.917px;" id="elx5ph1354dor" class="animable"></path><path d="M384.89,241.33c-4,11.42-54,28.78-66.64,27.21S283.89,236,287.79,213.88c0,0-3.54.8-3.66-.1-.87-6.73-2.59-4-.58-7.64,6.66-12,25.1-14.22,27.15-13.07s1.79,10.32,1.79,10.32,12.07,13.21,17.58,23.11c0,0,1.21-3.41,7-1,0,0,15.53-21.28,25-21.84" style="fill: rgb(146, 227, 169); transform-origin: 333.752px 230.721px;" id="elw8vhx96v1y" class="animable"></path><g style="clip-path: url(&quot;#freepik--clip-path-5--inject-39&quot;); transform-origin: 326.635px 236.279px;" id="elcwjaai0azzk" class="animable"><g id="elmt85tze335"><path d="M369.66,253.29c-16.93,8.62-42.8,16.32-51.41,15.25C305.6,267,283.89,236,287.79,213.88c0,0-3.54.8-3.66-.1a23.19,23.19,0,0,0-.52-2.8c6.33-3.39,15.56-7.62,21.15-7,0,0-14.4,4.22-12.34,19.25s19.47,43.25,26.06,42.73C324.86,265.44,354.13,261,369.66,253.29Z" style="fill-opacity: 0.7; opacity: 0.2; transform-origin: 326.635px 236.279px;" class="animable"></path></g></g><path d="M384.89,241.33c-4,11.42-54,28.78-66.64,27.21S283.89,236,287.79,213.88c0,0-3.54.8-3.66-.1-.87-6.73-2.59-4-.58-7.64,6.66-12,25.1-14.22,27.15-13.07s1.79,10.32,1.79,10.32,12.07,13.21,17.58,23.11c0,0,1.21-3.41,7-1,0,0,15.53-21.28,25-21.84" style="fill: none; stroke: rgb(38, 50, 56); stroke-linecap: round; stroke-linejoin: round; transform-origin: 333.752px 230.721px;" id="elautflz3nsir" class="animable"></path><path d="M236.56,406.16c3.34-18.49-7.05-23.16-7.05-23.16-19.63-1.36-19.53,8.58-19.53,8.58s-6.89,8,21.14,14.58" style="fill: rgb(38, 50, 56); transform-origin: 223.227px 394.516px;" id="eludnwhdj5ro" class="animable"></path><path d="M287.79,213.88s6.33-9.65,21.59-9.91" style="fill: none; stroke: rgb(38, 50, 56); stroke-linecap: round; stroke-linejoin: round; transform-origin: 298.585px 208.925px;" id="elq4piamza1wo" class="animable"></path><path d="M330.07,226.5s2.13,10.7.55,14.92,6.25,2,3.13-4.75" style="fill: rgb(146, 227, 169); stroke: rgb(38, 50, 56); stroke-linecap: round; stroke-linejoin: round; transform-origin: 332.281px 235.033px;" id="ellmdmrskp6a" class="animable"></path><path d="M360.39,230.64a10.19,10.19,0,0,0,3-2.76" style="fill: none; stroke: rgb(38, 50, 56); stroke-linecap: round; stroke-linejoin: round; transform-origin: 361.89px 229.26px;" id="elvsvonlkmd59" class="animable"></path><path d="M337.11,225.53a22.46,22.46,0,0,0,16.68,7" style="fill: none; stroke: rgb(38, 50, 56); stroke-linecap: round; stroke-linejoin: round; transform-origin: 345.45px 229.032px;" id="el641npkuudx" class="animable"></path><path d="M379,185.13a35.57,35.57,0,0,1-3.92,3" style="fill: none; stroke: rgb(38, 50, 56); stroke-linecap: round; stroke-linejoin: round; transform-origin: 377.04px 186.63px;" id="el6azjrua134k" class="animable"></path><path d="M389.05,172.65a46.14,46.14,0,0,1-5.12,7.44" style="fill: none; stroke: rgb(38, 50, 56); stroke-linecap: round; stroke-linejoin: round; transform-origin: 386.49px 176.37px;" id="elq3eybh1n2wr" class="animable"></path><path d="M270,238c-5.8,4.14-12.94,5.95-20,6.53" style="fill: none; stroke: rgb(38, 50, 56); stroke-miterlimit: 10; transform-origin: 260px 241.265px;" id="el889de0qaz2q" class="animable"></path><path d="M279.77,223.48a21.25,21.25,0,0,1-4.53,9.58" style="fill: none; stroke: rgb(38, 50, 56); stroke-miterlimit: 10; transform-origin: 277.505px 228.27px;" id="elswrpzfv77wp" class="animable"></path><path d="M253.86,320c1.61,1.71,3.75,1.9,5.21-.13" style="fill: none; stroke: rgb(38, 50, 56); stroke-miterlimit: 10; transform-origin: 256.465px 320.604px;" id="el886y444xdgv" class="animable"></path><path d="M227.39,300.25c3.18-2.69,9.38-7.08,13.51-4.05,2.14,1.57,3.2,5,4.24,7.32,1.46,3.26,2.83,6.55,4.42,9.75" style="fill: none; stroke: rgb(38, 50, 56); stroke-miterlimit: 10; transform-origin: 238.475px 304.222px;" id="el6xwvnrr8dc" class="animable"></path><path d="M279.77,347.34l-.11.19-6.86,12.11a7.88,7.88,0,0,1-5.16,3.81l-4.1,7.25a3.68,3.68,0,0,1,.63,4.44l-.78,1.38a3.79,3.79,0,0,1-.58.77,4.33,4.33,0,0,0-1,4.88,4.17,4.17,0,0,0-2.36,1.09,4.66,4.66,0,0,0-1.33,2.27,3.14,3.14,0,0,1-.36.9l-.78,1.38a3.68,3.68,0,0,1-4.14,1.74l-4.1,7.24a7.93,7.93,0,0,1-.62,6.38l-7,12.3-13.77-7.8,7-12.3a7.85,7.85,0,0,1,5.16-3.81l4.1-7.25a3.65,3.65,0,0,1-.88-3.88,2.53,2.53,0,0,1,.25-.56l.78-1.38a3.46,3.46,0,0,1,.58-.77,4.36,4.36,0,0,0,1-4.88,4.35,4.35,0,0,0,3.68-3.36,3.85,3.85,0,0,1,.36-.9l.79-1.38a3.69,3.69,0,0,1,4.14-1.74l4.1-7.24a7.85,7.85,0,0,1,.62-6.38l4.27-7.53,2.7-4.77Z" style="fill: rgb(255, 255, 255); transform-origin: 253.56px 377.505px;" id="ela4fk5rvrhh7" class="animable"></path><g style="clip-path: url(&quot;#freepik--clip-path-6--inject-39&quot;); transform-origin: 261.2px 366.63px;" id="ely362w36zwwn" class="animable"><g id="elqqtxluzhzcq"><path d="M263.3,344.31l16.36,3.22-6.86,12.11a7.88,7.88,0,0,1-5.16,3.81l-4.1,7.25a3.68,3.68,0,0,1,.63,4.44l-.78,1.38a3.79,3.79,0,0,1-.58.77,4.33,4.33,0,0,0-1,4.88,4.17,4.17,0,0,0-2.36,1.09,4.66,4.66,0,0,0-1.33,2.27,3.14,3.14,0,0,1-.36.9l-.78,1.38a3.71,3.71,0,0,1-1,1.14q-6.67-3.9-13.24-8.52a2.53,2.53,0,0,1,.25-.56l.78-1.38a3.46,3.46,0,0,1,.58-.77,4.36,4.36,0,0,0,1-4.88,4.35,4.35,0,0,0,3.68-3.36,3.85,3.85,0,0,1,.36-.9l.79-1.38a3.69,3.69,0,0,1,4.14-1.74l4.1-7.24a7.85,7.85,0,0,1,.62-6.38Z" style="fill: rgb(146, 227, 169); opacity: 0.4; transform-origin: 261.2px 366.63px;" class="animable"></path></g></g><path d="M279.77,347.34l-.11.19-6.86,12.11a7.88,7.88,0,0,1-5.16,3.81l-4.1,7.25a3.68,3.68,0,0,1,.63,4.44l-.78,1.38a3.79,3.79,0,0,1-.58.77,4.33,4.33,0,0,0-1,4.88,4.17,4.17,0,0,0-2.36,1.09,4.66,4.66,0,0,0-1.33,2.27,3.14,3.14,0,0,1-.36.9l-.78,1.38a3.68,3.68,0,0,1-4.14,1.74l-4.1,7.24a7.93,7.93,0,0,1-.62,6.38l-7,12.3-13.77-7.8,7-12.3a7.85,7.85,0,0,1,5.16-3.81l4.1-7.25a3.65,3.65,0,0,1-.88-3.88,2.53,2.53,0,0,1,.25-.56l.78-1.38a3.46,3.46,0,0,1,.58-.77,4.36,4.36,0,0,0,1-4.88,4.35,4.35,0,0,0,3.68-3.36,3.85,3.85,0,0,1,.36-.9l.79-1.38a3.69,3.69,0,0,1,4.14-1.74l4.1-7.24a7.85,7.85,0,0,1,.62-6.38l4.27-7.53,2.7-4.77Z" style="fill: none; stroke: rgb(38, 50, 56); stroke-linecap: round; stroke-linejoin: round; transform-origin: 253.56px 377.505px;" id="elfdr19c9hqnj" class="animable"></path><line x1="265.25" y1="362" x2="258.45" y2="358.14" style="fill: none; stroke: rgb(38, 50, 56); stroke-linecap: round; stroke-linejoin: round; transform-origin: 261.85px 360.07px;" id="elqjt17su81zj" class="animable"></line><line x1="256.16" y1="366.54" x2="263.52" y2="370.72" style="fill: none; stroke: rgb(38, 50, 56); stroke-linecap: round; stroke-linejoin: round; transform-origin: 259.84px 368.63px;" id="elegcsk7pg4bv" class="animable"></line><line x1="261.82" y1="382.17" x2="257.03" y2="379.46" style="fill: none; stroke: rgb(38, 50, 56); stroke-linecap: round; stroke-linejoin: round; transform-origin: 259.425px 380.815px;" id="elnqikcy05j8s" class="animable"></line><line x1="253.58" y1="377.5" x2="245.34" y2="372.84" style="fill: none; stroke: rgb(38, 50, 56); stroke-linecap: round; stroke-linejoin: round; transform-origin: 249.46px 375.17px;" id="el8lc1ybnlzyr" class="animable"></line><line x1="243.62" y1="384.31" x2="250.42" y2="388.17" style="fill: none; stroke: rgb(38, 50, 56); stroke-linecap: round; stroke-linejoin: round; transform-origin: 247.02px 386.24px;" id="el7lw58a02807" class="animable"></line><line x1="248.75" y1="396.79" x2="242.19" y2="393.07" style="fill: none; stroke: rgb(38, 50, 56); stroke-linecap: round; stroke-linejoin: round; transform-origin: 245.47px 394.93px;" id="elzbd1pmd1jzr" class="animable"></line><path d="M375.39,435.08l-15.65,2.35-2.1-14a7.87,7.87,0,0,1,1.68-6.16l0,0L358.1,409a3.68,3.68,0,0,1-3.24-3.1l-.23-1.57a3.51,3.51,0,0,1,0-1,5.44,5.44,0,0,0,0-.57,4.27,4.27,0,0,0-2.27-3.88,4.35,4.35,0,0,0,.83-4.92,3.39,3.39,0,0,1-.27-.92l-.23-1.57a3.66,3.66,0,0,1,2.18-3.92l-1.24-8.24a7.89,7.89,0,0,1-3.45-5.4l-1.94-13h0l-.15-1,15.65-2.35,1,6.63,1.1,7.35a7.85,7.85,0,0,1-1.71,6.18l1.24,8.23a3.67,3.67,0,0,1,3.24,3.1l.24,1.57a4,4,0,0,1,0,1,4.35,4.35,0,0,0,2.23,4.45,4.36,4.36,0,0,0-.82,4.92,3.91,3.91,0,0,1,.26.92l.24,1.57a3.69,3.69,0,0,1-2.18,3.92l1.23,8.24a8,8,0,0,1,1.82,1.66,7.78,7.78,0,0,1,1.63,3.74Z" style="fill: rgb(255, 255, 255); transform-origin: 361.74px 397.495px;" id="elq5c22f4tk9h" class="animable"></path><g style="clip-path: url(&quot;#freepik--clip-path-7--inject-39&quot;); transform-origin: 359.945px 389.16px;" id="elxgk92vueo6" class="animable"><g id="el5gq8ur0qwtj"><path d="M371.65,417.36c-3.65.07-7.79.08-12.33-.06l0,0L358.1,409a3.68,3.68,0,0,1-3.24-3.1l-.23-1.57a3.51,3.51,0,0,1,0-1,5.44,5.44,0,0,0,0-.57,4.27,4.27,0,0,0-2.27-3.88,4.35,4.35,0,0,0,.83-4.92,3.39,3.39,0,0,1-.27-.92l-.23-1.57a3.66,3.66,0,0,1,2.18-3.92l-1.24-8.24a7.89,7.89,0,0,1-3.45-5.4l-1.94-13,16.49,3.25,1.1,7.35a7.85,7.85,0,0,1-1.71,6.18l1.24,8.23a3.67,3.67,0,0,1,3.24,3.1l.24,1.57a4,4,0,0,1,0,1,4.35,4.35,0,0,0,2.23,4.45,4.36,4.36,0,0,0-.82,4.92,3.91,3.91,0,0,1,.26.92l.24,1.57a3.69,3.69,0,0,1-2.18,3.92l1.23,8.24A8,8,0,0,1,371.65,417.36Z" style="fill: rgb(146, 227, 169); opacity: 0.4; transform-origin: 359.945px 389.16px;" class="animable"></path></g></g><path d="M375.39,435.08l-15.65,2.35-2.1-14a7.87,7.87,0,0,1,1.68-6.16l0,0L358.1,409a3.68,3.68,0,0,1-3.24-3.1l-.23-1.57a3.51,3.51,0,0,1,0-1,5.44,5.44,0,0,0,0-.57,4.27,4.27,0,0,0-2.27-3.88,4.35,4.35,0,0,0,.83-4.92,3.39,3.39,0,0,1-.27-.92l-.23-1.57a3.66,3.66,0,0,1,2.18-3.92l-1.24-8.24a7.89,7.89,0,0,1-3.45-5.4l-1.94-13h0l-.15-1,15.65-2.35,1,6.63,1.1,7.35a7.85,7.85,0,0,1-1.71,6.18l1.24,8.23a3.67,3.67,0,0,1,3.24,3.1l.24,1.57a4,4,0,0,1,0,1,4.35,4.35,0,0,0,2.23,4.45,4.36,4.36,0,0,0-.82,4.92,3.91,3.91,0,0,1,.26.92l.24,1.57a3.69,3.69,0,0,1-2.18,3.92l1.23,8.24a8,8,0,0,1,1.82,1.66,7.78,7.78,0,0,1,1.63,3.74Z" style="fill: none; stroke: rgb(38, 50, 56); stroke-linecap: round; stroke-linejoin: round; transform-origin: 361.74px 397.495px;" id="elyit33gvcqa" class="animable"></path><line x1="356.39" y1="378.88" x2="364.12" y2="377.72" style="fill: none; stroke: rgb(38, 50, 56); stroke-linecap: round; stroke-linejoin: round; transform-origin: 360.255px 378.3px;" id="elcirqm1oyian" class="animable"></line><line x1="363.25" y1="386.38" x2="354.88" y2="387.64" style="fill: none; stroke: rgb(38, 50, 56); stroke-linecap: round; stroke-linejoin: round; transform-origin: 359.065px 387.01px;" id="elzcwjwp49z3s" class="animable"></line><line x1="352.37" y1="398.95" x2="357.82" y2="398.13" style="fill: none; stroke: rgb(38, 50, 56); stroke-linecap: round; stroke-linejoin: round; transform-origin: 355.095px 398.54px;" id="elodehxphh06k" class="animable"></line><line x1="361.74" y1="397.54" x2="371.1" y2="396.13" style="fill: none; stroke: rgb(38, 50, 56); stroke-linecap: round; stroke-linejoin: round; transform-origin: 366.42px 396.835px;" id="elxt1zc0mnhur" class="animable"></line><line x1="368.6" y1="407.46" x2="360.87" y2="408.63" style="fill: none; stroke: rgb(38, 50, 56); stroke-linecap: round; stroke-linejoin: round; transform-origin: 364.735px 408.045px;" id="eli7kamm7zsy" class="animable"></line><line x1="359.34" y1="417.27" x2="366.8" y2="416.15" style="fill: none; stroke: rgb(38, 50, 56); stroke-linecap: round; stroke-linejoin: round; transform-origin: 363.07px 416.71px;" id="elowqvjsxh0c" class="animable"></line><path d="M409.07,429.26a167,167,0,0,1-211-39.09,4.06,4.06,0,0,1,.62-5.78c1.39-1.09,2.78-2.17,4.17-3.27l2.4-1.88a4,4,0,0,1,5.6.61,150.63,150.63,0,0,0,190,35.19,4,4,0,0,1,2.45-.49,4,4,0,0,1,3,1.93l4.29,7.17A4.06,4.06,0,0,1,409.07,429.26Z" style="fill: rgb(255, 255, 255); transform-origin: 304.15px 414.627px;" id="elrrhxdwfvzwe" class="animable"></path><g style="clip-path: url(&quot;#freepik--clip-path-8--inject-39&quot;); transform-origin: 304.141px 416.002px;" id="eluw4k5x8ssk" class="animable"><g id="eld0hgulisz6i"><path d="M409.07,429.26a167,167,0,0,1-211-39.09,4.06,4.06,0,0,1,.62-5.78c1.39-1.09,2.78-2.17,4.17-3.27a159.47,159.47,0,0,0,95.36,59c66.33,13,104.22-8.38,105.09-25.53a4,4,0,0,1,3,1.93l4.29,7.17A4.06,4.06,0,0,1,409.07,429.26Z" style="fill: rgb(146, 227, 169); opacity: 0.4; transform-origin: 304.141px 416.002px;" class="animable"></path></g></g><path d="M409.07,429.26a167,167,0,0,1-211-39.09,4.06,4.06,0,0,1,.62-5.78c1.39-1.09,2.78-2.17,4.17-3.27l2.4-1.88a4,4,0,0,1,5.6.61,150.63,150.63,0,0,0,190,35.19,4,4,0,0,1,2.45-.49,4,4,0,0,1,3,1.93l4.29,7.17A4.06,4.06,0,0,1,409.07,429.26Z" style="fill: none; stroke: rgb(38, 50, 56); stroke-linecap: round; stroke-linejoin: round; transform-origin: 304.15px 414.627px;" id="elg6pocxnl65" class="animable"></path><path d="M350.73,284.71a2.14,2.14,0,0,1-2.07,1.74l-1,5.46a11.85,11.85,0,0,0-2.57,13.89l-.92,4.92a2.14,2.14,0,0,1-.76,4.13l-.64,3.46-.06.32a11.84,11.84,0,0,0-2.57,13.88l-1.45,7.8a2.14,2.14,0,0,1,1.35,2,2.58,2.58,0,0,1,0,.39,2.14,2.14,0,0,1-2.07,1.75l-1.82,9.81-13.23-2.45,1.82-9.81a2.14,2.14,0,0,1-1.35-2,2.58,2.58,0,0,1,0-.39,2.12,2.12,0,0,1,2.07-1.74L326.9,330a11.84,11.84,0,0,0,2.56-13.84l.71-3.8a2.15,2.15,0,0,1-1.35-2c0-.11,0-.22,0-.33a2.14,2.14,0,0,1,2.07-1.75l.92-4.94a11.85,11.85,0,0,0,2.56-13.85l1-5.48a2.14,2.14,0,0,1,.76-4.12l1.07-5.79.54-2.89L351,273.65l-.48,2.59-1.13,6.09A2.14,2.14,0,0,1,350.73,284.71Z" style="fill: rgb(255, 255, 255); transform-origin: 336.96px 312.735px;" id="elau5odqhkkdw" class="animable"></path><g style="clip-path: url(&quot;#freepik--clip-path-9--inject-39&quot;); transform-origin: 339.78px 296.205px;" id="ely4rww8xztc" class="animable"><g id="elxygfczeq45"><path d="M350.73,284.71a2.14,2.14,0,0,1-2.07,1.74l-1,5.46a11.85,11.85,0,0,0-2.57,13.89l-.92,4.92a2.14,2.14,0,0,1-.76,4.13l-.64,3.46L333,312.75h0l-4.2-2.39c0-.11,0-.22,0-.33a2.14,2.14,0,0,1,2.07-1.75l.92-4.94a11.85,11.85,0,0,0,2.56-13.85l1-5.48a2.14,2.14,0,0,1,.76-4.12l1.07-5.79,13.29,2.15-1.13,6.09A2.14,2.14,0,0,1,350.73,284.71Z" style="fill: rgb(146, 227, 169); opacity: 0.4; transform-origin: 339.78px 296.205px;" class="animable"></path></g></g><path d="M350.73,284.71a2.14,2.14,0,0,1-2.07,1.74l-1,5.46a11.85,11.85,0,0,0-2.57,13.89l-.92,4.92a2.14,2.14,0,0,1-.76,4.13l-.64,3.46-.06.32a11.84,11.84,0,0,0-2.57,13.88l-1.45,7.8a2.14,2.14,0,0,1,1.35,2,2.58,2.58,0,0,1,0,.39,2.14,2.14,0,0,1-2.07,1.75l-1.82,9.81-13.23-2.45,1.82-9.81a2.14,2.14,0,0,1-1.35-2,2.58,2.58,0,0,1,0-.39,2.12,2.12,0,0,1,2.07-1.74L326.9,330a11.84,11.84,0,0,0,2.56-13.84l.71-3.8a2.15,2.15,0,0,1-1.35-2c0-.11,0-.22,0-.33a2.14,2.14,0,0,1,2.07-1.75l.92-4.94a11.85,11.85,0,0,0,2.56-13.85l1-5.48a2.14,2.14,0,0,1,.76-4.12l1.07-5.79.54-2.89L351,273.65l-.48,2.59-1.13,6.09A2.14,2.14,0,0,1,350.73,284.71Z" style="fill: none; stroke: rgb(38, 50, 56); stroke-linecap: round; stroke-linejoin: round; transform-origin: 336.96px 312.735px;" id="elese7hzxi3mu" class="animable"></path><line x1="335.43" y1="284" x2="344.05" y2="285.6" style="fill: none; stroke: rgb(38, 50, 56); stroke-linecap: round; stroke-linejoin: round; transform-origin: 339.74px 284.8px;" id="elj4mllkzxqmg" class="animable"></line><line x1="347.16" y1="286.18" x2="346.05" y2="285.97" style="fill: none; stroke: rgb(38, 50, 56); stroke-linecap: round; stroke-linejoin: round; transform-origin: 346.605px 286.075px;" id="elnew6jcvuzt" class="animable"></line><line x1="344.16" y1="310.72" x2="333.72" y2="308.79" style="fill: none; stroke: rgb(38, 50, 56); stroke-linecap: round; stroke-linejoin: round; transform-origin: 338.94px 309.755px;" id="eltop4y04mmm" class="animable"></line><line x1="332.99" y1="312.74" x2="339.47" y2="313.94" style="fill: none; stroke: rgb(38, 50, 56); stroke-linecap: round; stroke-linejoin: round; transform-origin: 336.23px 313.34px;" id="elj725c8j2e9" class="animable"></line><line x1="338.68" y1="340.31" x2="331.48" y2="338.97" style="fill: none; stroke: rgb(38, 50, 56); stroke-linecap: round; stroke-linejoin: round; transform-origin: 335.08px 339.64px;" id="ellw8ojltqf8j" class="animable"></line><line x1="325.45" y1="337.86" x2="328.24" y2="338.37" style="fill: none; stroke: rgb(38, 50, 56); stroke-linecap: round; stroke-linejoin: round; transform-origin: 326.845px 338.115px;" id="elh1xywgy2b74" class="animable"></line><path d="M309.43,277.06a2.14,2.14,0,0,1-2.07,1.74l-1,5.46a11.36,11.36,0,0,0-3.58,6.52,11.85,11.85,0,0,0,.06,4.72,9.81,9.81,0,0,0,.95,2.65l-.91,4.92a2.14,2.14,0,0,1-.77,4.13l-.7,3.78a11.88,11.88,0,0,0-2.57,13.88l-1.44,7.8a2.14,2.14,0,0,1,1.34,2,2.58,2.58,0,0,1,0,.39,2.14,2.14,0,0,1-2.07,1.75l-1.81,9.81-13.24-2.45,1.82-9.81a2.14,2.14,0,0,1-1.35-2,2.58,2.58,0,0,1,0-.39,2.13,2.13,0,0,1,2.07-1.74l1.45-7.82a11.84,11.84,0,0,0,2.56-13.84l.71-3.8a2.14,2.14,0,0,1,.76-4.13l.92-4.94a10.87,10.87,0,0,0,3.27-5.32,9.24,9.24,0,0,0,.29-1.18,11.34,11.34,0,0,0-1-7.35l1-5.48a2.14,2.14,0,0,1,.76-4.12l.9-4.84.71-3.84L309.73,266l-.65,3.53-.95,5.15A2.15,2.15,0,0,1,309.43,277.06Z" style="fill: rgb(255, 255, 255); transform-origin: 295.675px 305.085px;" id="el2xa8ottub3" class="animable"></path><g style="clip-path: url(&quot;#freepik--clip-path-10--inject-39&quot;); transform-origin: 301.133px 281.445px;" id="elvtlx2xdpqql" class="animable"><g id="el5b9ur6wn9z8"><path d="M309.43,277.06a2.14,2.14,0,0,1-2.07,1.74l-1,5.46a11.36,11.36,0,0,0-3.58,6.52,11.85,11.85,0,0,0,.06,4.72l-9-5.14a9.24,9.24,0,0,0,.29-1.18,11.34,11.34,0,0,0-1-7.35l1-5.48a2.14,2.14,0,0,1,.76-4.12l.9-4.84,13.29,2.14-.95,5.15A2.15,2.15,0,0,1,309.43,277.06Z" style="fill: rgb(146, 227, 169); opacity: 0.4; transform-origin: 301.133px 281.445px;" class="animable"></path></g></g><path d="M309.43,277.06a2.14,2.14,0,0,1-2.07,1.74l-1,5.46a11.36,11.36,0,0,0-3.58,6.52,11.85,11.85,0,0,0,.06,4.72,9.81,9.81,0,0,0,.95,2.65l-.91,4.92a2.14,2.14,0,0,1-.77,4.13l-.7,3.78a11.88,11.88,0,0,0-2.57,13.88l-1.44,7.8a2.14,2.14,0,0,1,1.34,2,2.58,2.58,0,0,1,0,.39,2.14,2.14,0,0,1-2.07,1.75l-1.81,9.81-13.24-2.45,1.82-9.81a2.14,2.14,0,0,1-1.35-2,2.58,2.58,0,0,1,0-.39,2.13,2.13,0,0,1,2.07-1.74l1.45-7.82a11.84,11.84,0,0,0,2.56-13.84l.71-3.8a2.14,2.14,0,0,1,.76-4.13l.92-4.94a10.87,10.87,0,0,0,3.27-5.32,9.24,9.24,0,0,0,.29-1.18,11.34,11.34,0,0,0-1-7.35l1-5.48a2.14,2.14,0,0,1,.76-4.12l.9-4.84.71-3.84L309.73,266l-.65,3.53-.95,5.15A2.15,2.15,0,0,1,309.43,277.06Z" style="fill: none; stroke: rgb(38, 50, 56); stroke-linecap: round; stroke-linejoin: round; transform-origin: 295.675px 305.085px;" id="elv91s4xe3y6" class="animable"></path><line x1="294.13" y1="276.35" x2="302.75" y2="277.95" style="fill: none; stroke: rgb(38, 50, 56); stroke-linecap: round; stroke-linejoin: round; transform-origin: 298.44px 277.15px;" id="elcoeo9qfwnv" class="animable"></line><line x1="305.87" y1="278.53" x2="304.76" y2="278.32" style="fill: none; stroke: rgb(38, 50, 56); stroke-linecap: round; stroke-linejoin: round; transform-origin: 305.315px 278.425px;" id="el5n2cyljgq64" class="animable"></line><line x1="302.87" y1="303.08" x2="292.42" y2="301.14" style="fill: none; stroke: rgb(38, 50, 56); stroke-linecap: round; stroke-linejoin: round; transform-origin: 297.645px 302.11px;" id="elg8lzjjw5zc7" class="animable"></line><line x1="291.69" y1="305.09" x2="298.18" y2="306.29" style="fill: none; stroke: rgb(38, 50, 56); stroke-linecap: round; stroke-linejoin: round; transform-origin: 294.935px 305.69px;" id="elpq2ygs4j49m" class="animable"></line><line x1="297.39" y1="332.66" x2="290.19" y2="331.32" style="fill: none; stroke: rgb(38, 50, 56); stroke-linecap: round; stroke-linejoin: round; transform-origin: 293.79px 331.99px;" id="elzit9bkmyvmi" class="animable"></line><line x1="284.15" y1="330.21" x2="286.94" y2="330.72" style="fill: none; stroke: rgb(38, 50, 56); stroke-linecap: round; stroke-linejoin: round; transform-origin: 285.545px 330.465px;" id="elmxcmtkfhhw" class="animable"></line><path d="M396.69,273.19l-3.2,17.26-8.79-1.63-99.12-18.36a12.47,12.47,0,0,1-10.16-11.19,12.24,12.24,0,0,1,.16-3.35,5.1,5.1,0,0,1,5-4.16,4.88,4.88,0,0,1,.93.09Z" style="fill: rgb(255, 255, 255); transform-origin: 336.03px 271.105px;" id="elgs1b630lv8o" class="animable"></path><g style="clip-path: url(&quot;#freepik--clip-path-11--inject-39&quot;); transform-origin: 332.235px 274.065px;" id="el9pj4u0fju17" class="animable"><g id="ell7fv2klg1e"><path d="M389.05,273l-4.35,15.84-99.12-18.36a12.47,12.47,0,0,1-10.16-11.19L377.24,278Z" style="fill: rgb(146, 227, 169); opacity: 0.4; transform-origin: 332.235px 274.065px;" class="animable"></path></g></g><path d="M396.69,273.19l-3.2,17.26-8.79-1.63-99.12-18.36a12.47,12.47,0,0,1-10.16-11.19,12.24,12.24,0,0,1,.16-3.35,5.1,5.1,0,0,1,5-4.16,4.88,4.88,0,0,1,.93.09Z" style="fill: none; stroke: rgb(38, 50, 56); stroke-linecap: round; stroke-linejoin: round; transform-origin: 336.03px 271.105px;" id="el2pka5tf1prc" class="animable"></path><path d="M446.36,129.08l-.51,1.56L447,131a2.5,2.5,0,0,1-1.56,4.76l-1.19-.39-1.66,5.06a4.11,4.11,0,0,1-2.37,7.21l-1.65,5,.86.28a2.37,2.37,0,1,1-1.48,4.5l-.86-.28-65.34,199-12.41-4.08.2-.61,65.15-198.39-.86-.29a2.37,2.37,0,1,1,1.47-4.5l.86.28,1.66-5a4.11,4.11,0,0,1,2.37-7.21l1.66-5.06-1.19-.39a2.5,2.5,0,1,1,1.56-4.76l1.19.39L434,125a9.05,9.05,0,0,1,9.58-12.87,8,8,0,0,1,1.41.34,9,9,0,0,1,1.41,16.6Z" style="fill: rgb(255, 255, 255); transform-origin: 405.32px 234.078px;" id="el7szg9g7hg6" class="animable"></path><g style="clip-path: url(&quot;#freepik--clip-path-12--inject-39&quot;); transform-origin: 405.27px 234.1px;" id="elhpv5geepeg" class="animable"><g id="eleae1jancolp"><path d="M446.36,129.08l-.51,1.56L447,131a2.5,2.5,0,0,1-1.56,4.76l-1.19-.39-1.66,5.06a4.11,4.11,0,0,1-2.37,7.21l-1.65,5,.86.28a2.37,2.37,0,1,1-1.48,4.5l-.86-.28-65.34,199-12.41-4.08.2-.61,10-5.36,58-179.11,3.9-11.7,1.52-4.58,1.65-4.95,2.31-6.94,3.87-11.61.83-2.5c3-3.24,2.92-8.13,1.86-12.64a8,8,0,0,1,1.41.34,9,9,0,0,1,1.41,16.6Z" style="fill: rgb(146, 227, 169); opacity: 0.4; transform-origin: 405.27px 234.1px;" class="animable"></path></g></g><path d="M446.36,129.08l-.51,1.56L447,131a2.5,2.5,0,0,1-1.56,4.76l-1.19-.39-1.66,5.06a4.11,4.11,0,0,1-2.37,7.21l-1.65,5,.86.28a2.37,2.37,0,1,1-1.48,4.5l-.86-.28-65.34,199-12.41-4.08.2-.61,65.15-198.39-.86-.29a2.37,2.37,0,1,1,1.47-4.5l.86.28,1.66-5a4.11,4.11,0,0,1,2.37-7.21l1.66-5.06-1.19-.39a2.5,2.5,0,1,1,1.56-4.76l1.19.39L434,125a9.05,9.05,0,0,1,9.58-12.87,8,8,0,0,1,1.41.34,9,9,0,0,1,1.41,16.6Z" style="fill: none; stroke: rgb(38, 50, 56); stroke-linecap: round; stroke-linejoin: round; transform-origin: 405.32px 234.078px;" id="elxqokbuhlynk" class="animable"></path><line x1="433.96" y1="125.01" x2="442.84" y2="127.93" style="fill: none; stroke: rgb(38, 50, 56); stroke-linecap: round; stroke-linejoin: round; transform-origin: 438.4px 126.47px;" id="els6cfqz2qz0s" class="animable"></line><line x1="444.29" y1="135.4" x2="439.08" y2="133.69" style="fill: none; stroke: rgb(38, 50, 56); stroke-linecap: round; stroke-linejoin: round; transform-origin: 441.685px 134.545px;" id="elr56ijx94ijp" class="animable"></line><line x1="431.89" y1="131.33" x2="434.76" y2="132.27" style="fill: none; stroke: rgb(38, 50, 56); stroke-linecap: round; stroke-linejoin: round; transform-origin: 433.325px 131.8px;" id="el5ci8tv9klmm" class="animable"></line><line x1="433.01" y1="137.59" x2="442.54" y2="140.72" style="fill: none; stroke: rgb(38, 50, 56); stroke-linecap: round; stroke-linejoin: round; transform-origin: 437.775px 139.155px;" id="elbuze9um3b1p" class="animable"></line><line x1="427.86" y1="143.6" x2="437.66" y2="146.81" style="fill: none; stroke: rgb(38, 50, 56); stroke-linecap: round; stroke-linejoin: round; transform-origin: 432.76px 145.205px;" id="elxlq3t8cm0x" class="animable"></line><line x1="437.13" y1="157.21" x2="430.93" y2="155.17" style="fill: none; stroke: rgb(38, 50, 56); stroke-linecap: round; stroke-linejoin: round; transform-origin: 434.03px 156.19px;" id="elkprabtjt8p" class="animable"></line><line x1="430.67" y1="150.01" x2="433.42" y2="150.91" style="fill: none; stroke: rgb(38, 50, 56); stroke-linecap: round; stroke-linejoin: round; transform-origin: 432.045px 150.46px;" id="elbzul2u5oh2" class="animable"></line><line x1="424.73" y1="153.14" x2="427.6" y2="154.08" style="fill: none; stroke: rgb(38, 50, 56); stroke-linecap: round; stroke-linejoin: round; transform-origin: 426.165px 153.61px;" id="elhpvbc7svs5h" class="animable"></line><path d="M381,356.94l-.34,1.84-1.14,6.14a4.42,4.42,0,0,1-5.15,3.53L252.23,345.83a4.41,4.41,0,0,1-3.54-5.14l.66-3.58.82-4.4a4.41,4.41,0,0,1,5.14-3.54l122.12,22.62A4.42,4.42,0,0,1,381,356.94Z" style="fill: rgb(255, 255, 255); transform-origin: 314.845px 348.81px;" id="elkk21phhjb0l" class="animable"></path><g style="clip-path: url(&quot;#freepik--clip-path-13--inject-39&quot;); transform-origin: 314.623px 352.817px;" id="el0a02ltqw9mrk" class="animable"><g id="el11qma41h1etd"><path d="M380.63,358.78l-1.14,6.14a4.42,4.42,0,0,1-5.15,3.53L252.23,345.83a4.41,4.41,0,0,1-3.54-5.14l.66-3.58L375.12,362Z" style="fill: rgb(146, 227, 169); opacity: 0.4; transform-origin: 314.623px 352.817px;" class="animable"></path></g></g><path d="M381,356.94l-.34,1.84-1.14,6.14a4.42,4.42,0,0,1-5.15,3.53L252.23,345.83a4.41,4.41,0,0,1-3.54-5.14l.66-3.58.82-4.4a4.41,4.41,0,0,1,5.14-3.54l122.12,22.62A4.42,4.42,0,0,1,381,356.94Z" style="fill: none; stroke: rgb(38, 50, 56); stroke-linecap: round; stroke-linejoin: round; transform-origin: 314.845px 348.81px;" id="eltmy6r8dvcc8" class="animable"></path></g><defs>     <filter id="active" height="200%">         <feMorphology in="SourceAlpha" result="DILATED" operator="dilate" radius="2"></feMorphology>                <feFlood flood-color="#32DFEC" flood-opacity="1" result="PINK"></feFlood>        <feComposite in="PINK" in2="DILATED" operator="in" result="OUTLINE"></feComposite>        <feMerge>            <feMergeNode in="OUTLINE"></feMergeNode>            <feMergeNode in="SourceGraphic"></feMergeNode>        </feMerge>    </filter>    <filter id="hover" height="200%">        <feMorphology in="SourceAlpha" result="DILATED" operator="dilate" radius="2"></feMorphology>                <feFlood flood-color="#ff0000" flood-opacity="0.5" result="PINK"></feFlood>        <feComposite in="PINK" in2="DILATED" operator="in" result="OUTLINE"></feComposite>        <feMerge>            <feMergeNode in="OUTLINE"></feMergeNode>            <feMergeNode in="SourceGraphic"></feMergeNode>        </feMerge>            <feColorMatrix type="matrix" values="0   0   0   0   0                0   1   0   0   0                0   0   0   0   0                0   0   0   1   0 "></feColorMatrix>    </filter></defs><defs><clipPath id="freepik--clip-path--inject-39"><path d="M316.69,267.3s-20.14-4.09-26.39,1.68c0,0-27.5-15.57-65.09,2s5.84,103.68,5.84,103.68,20.6,11.07,34.89,6.46l-1.7-11.66-3.73-2.1s11.68-5.67,13.4-29.26c0,0,46.41,8.33,49,8.8S316.69,267.3,316.69,267.3Z" style="fill:#757575;stroke:#263238;stroke-linecap:round;stroke-linejoin:round"></path></clipPath><clipPath id="freepik--clip-path-2--inject-39"><path d="M349.71,188.76s-15.34,9.6-19.78,16.76S317.86,227,317.86,227l-22.43-9.17-16.95,12.66s10.13,32.62,24.95,35.34,59.94-37.93,59.94-37.93Z" style="fill:#92E3A9;stroke:#263238;stroke-linecap:round;stroke-linejoin:round"></path></clipPath><clipPath id="freepik--clip-path-3--inject-39"><path d="M381.31,169.65s-.66-6.56-2.38-6.69-19.21,17.1-28.12,19.9-4.05,14.31-4.05,14.31-13.82,11.76-11.24,28.07,14.69,12.37,14.69,12.37Z" style="fill:#92E3A9;stroke:#263238;stroke-linecap:round;stroke-linejoin:round"></path></clipPath><clipPath id="freepik--clip-path-4--inject-39"><path d="M406.84,201.6c9.05,37.85-30.31,142.92-46.51,151.46l-40.28-4.25s-37.52-92,7.05-107.32c0,0,11.89-43.29,57.72-69.63C384.82,171.86,401.18,177.93,406.84,201.6Z" style="fill:#92E3A9;stroke:#263238;stroke-linecap:round;stroke-linejoin:round"></path></clipPath><clipPath id="freepik--clip-path-5--inject-39"><path d="M384.89,241.33c-4,11.42-54,28.78-66.64,27.21S283.89,236,287.79,213.88c0,0-3.54.8-3.66-.1-.87-6.73-2.59-4-.58-7.64,6.66-12,25.1-14.22,27.15-13.07s1.79,10.32,1.79,10.32,12.07,13.21,17.58,23.11c0,0,1.21-3.41,7-1,0,0,15.53-21.28,25-21.84" style="fill:#92E3A9;stroke:#263238;stroke-linecap:round;stroke-linejoin:round"></path></clipPath><clipPath id="freepik--clip-path-6--inject-39"><path d="M279.77,347.34l-.11.19-6.86,12.11a7.88,7.88,0,0,1-5.16,3.81l-4.1,7.25a3.68,3.68,0,0,1,.63,4.44l-.78,1.38a3.79,3.79,0,0,1-.58.77,4.33,4.33,0,0,0-1,4.88,4.17,4.17,0,0,0-2.36,1.09,4.66,4.66,0,0,0-1.33,2.27,3.14,3.14,0,0,1-.36.9l-.78,1.38a3.68,3.68,0,0,1-4.14,1.74l-4.1,7.24a7.93,7.93,0,0,1-.62,6.38l-7,12.3-13.77-7.8,7-12.3a7.85,7.85,0,0,1,5.16-3.81l4.1-7.25a3.65,3.65,0,0,1-.88-3.88,2.53,2.53,0,0,1,.25-.56l.78-1.38a3.46,3.46,0,0,1,.58-.77,4.36,4.36,0,0,0,1-4.88,4.35,4.35,0,0,0,3.68-3.36,3.85,3.85,0,0,1,.36-.9l.79-1.38a3.69,3.69,0,0,1,4.14-1.74l4.1-7.24a7.85,7.85,0,0,1,.62-6.38l4.27-7.53,2.7-4.77Z" style="fill:#fff;stroke:#263238;stroke-linecap:round;stroke-linejoin:round"></path></clipPath><clipPath id="freepik--clip-path-7--inject-39"><path d="M375.39,435.08l-15.65,2.35-2.1-14a7.87,7.87,0,0,1,1.68-6.16l0,0L358.1,409a3.68,3.68,0,0,1-3.24-3.1l-.23-1.57a3.51,3.51,0,0,1,0-1,5.44,5.44,0,0,0,0-.57,4.27,4.27,0,0,0-2.27-3.88,4.35,4.35,0,0,0,.83-4.92,3.39,3.39,0,0,1-.27-.92l-.23-1.57a3.66,3.66,0,0,1,2.18-3.92l-1.24-8.24a7.89,7.89,0,0,1-3.45-5.4l-1.94-13h0l-.15-1,15.65-2.35,1,6.63,1.1,7.35a7.85,7.85,0,0,1-1.71,6.18l1.24,8.23a3.67,3.67,0,0,1,3.24,3.1l.24,1.57a4,4,0,0,1,0,1,4.35,4.35,0,0,0,2.23,4.45,4.36,4.36,0,0,0-.82,4.92,3.91,3.91,0,0,1,.26.92l.24,1.57a3.69,3.69,0,0,1-2.18,3.92l1.23,8.24a8,8,0,0,1,1.82,1.66,7.78,7.78,0,0,1,1.63,3.74Z" style="fill:#fff;stroke:#263238;stroke-linecap:round;stroke-linejoin:round"></path></clipPath><clipPath id="freepik--clip-path-8--inject-39"><path d="M409.07,429.26a167,167,0,0,1-211-39.09,4.06,4.06,0,0,1,.62-5.78c1.39-1.09,2.78-2.17,4.17-3.27l2.4-1.88a4,4,0,0,1,5.6.61,150.63,150.63,0,0,0,190,35.19,4,4,0,0,1,2.45-.49,4,4,0,0,1,3,1.93l4.29,7.17A4.06,4.06,0,0,1,409.07,429.26Z" style="fill:#fff"></path></clipPath><clipPath id="freepik--clip-path-9--inject-39"><path d="M350.73,284.71a2.14,2.14,0,0,1-2.07,1.74l-1,5.46a11.85,11.85,0,0,0-2.57,13.89l-.92,4.92a2.14,2.14,0,0,1-.76,4.13l-.64,3.46-.06.32a11.84,11.84,0,0,0-2.57,13.88l-1.45,7.8a2.14,2.14,0,0,1,1.35,2,2.58,2.58,0,0,1,0,.39,2.14,2.14,0,0,1-2.07,1.75l-1.82,9.81-13.23-2.45,1.82-9.81a2.14,2.14,0,0,1-1.35-2,2.58,2.58,0,0,1,0-.39,2.12,2.12,0,0,1,2.07-1.74L326.9,330a11.84,11.84,0,0,0,2.56-13.84l.71-3.8a2.15,2.15,0,0,1-1.35-2c0-.11,0-.22,0-.33a2.14,2.14,0,0,1,2.07-1.75l.92-4.94a11.85,11.85,0,0,0,2.56-13.85l1-5.48a2.14,2.14,0,0,1,.76-4.12l1.07-5.79.54-2.89L351,273.65l-.48,2.59-1.13,6.09A2.14,2.14,0,0,1,350.73,284.71Z" style="fill:#fff;stroke:#263238;stroke-linecap:round;stroke-linejoin:round"></path></clipPath><clipPath id="freepik--clip-path-10--inject-39"><path d="M309.43,277.06a2.14,2.14,0,0,1-2.07,1.74l-1,5.46a11.36,11.36,0,0,0-3.58,6.52,11.85,11.85,0,0,0,.06,4.72,9.81,9.81,0,0,0,.95,2.65l-.91,4.92a2.14,2.14,0,0,1-.77,4.13l-.7,3.78a11.88,11.88,0,0,0-2.57,13.88l-1.44,7.8a2.14,2.14,0,0,1,1.34,2,2.58,2.58,0,0,1,0,.39,2.14,2.14,0,0,1-2.07,1.75l-1.81,9.81-13.24-2.45,1.82-9.81a2.14,2.14,0,0,1-1.35-2,2.58,2.58,0,0,1,0-.39,2.13,2.13,0,0,1,2.07-1.74l1.45-7.82a11.84,11.84,0,0,0,2.56-13.84l.71-3.8a2.14,2.14,0,0,1,.76-4.13l.92-4.94a10.87,10.87,0,0,0,3.27-5.32,9.24,9.24,0,0,0,.29-1.18,11.34,11.34,0,0,0-1-7.35l1-5.48a2.14,2.14,0,0,1,.76-4.12l.9-4.84.71-3.84L309.73,266l-.65,3.53-.95,5.15A2.15,2.15,0,0,1,309.43,277.06Z" style="fill:#fff;stroke:#263238;stroke-linecap:round;stroke-linejoin:round"></path></clipPath><clipPath id="freepik--clip-path-11--inject-39"><path d="M396.69,273.19l-3.2,17.26-8.79-1.63-99.12-18.36a12.47,12.47,0,0,1-10.16-11.19,12.24,12.24,0,0,1,.16-3.35,5.1,5.1,0,0,1,5-4.16,4.88,4.88,0,0,1,.93.09Z" style="fill:#fff;stroke:#263238;stroke-linecap:round;stroke-linejoin:round"></path></clipPath><clipPath id="freepik--clip-path-12--inject-39"><path d="M446.36,129.08l-.51,1.56L447,131a2.5,2.5,0,0,1-1.56,4.76l-1.19-.39-1.66,5.06a4.11,4.11,0,0,1-2.37,7.21l-1.65,5,.86.28a2.37,2.37,0,1,1-1.48,4.5l-.86-.28-65.34,199-12.41-4.08.2-.61,65.15-198.39-.86-.29a2.37,2.37,0,1,1,1.47-4.5l.86.28,1.66-5a4.11,4.11,0,0,1,2.37-7.21l1.66-5.06-1.19-.39a2.5,2.5,0,1,1,1.56-4.76l1.19.39L434,125a9.05,9.05,0,0,1,9.58-12.87,8,8,0,0,1,1.41.34,9,9,0,0,1,1.41,16.6Z" style="fill:#fff;stroke:#263238;stroke-linecap:round;stroke-linejoin:round"></path></clipPath><clipPath id="freepik--clip-path-13--inject-39"><path d="M381,356.94l-.34,1.84-1.14,6.14a4.42,4.42,0,0,1-5.15,3.53L252.23,345.83a4.41,4.41,0,0,1-3.54-5.14l.66-3.58.82-4.4a4.41,4.41,0,0,1,5.14-3.54l122.12,22.62A4.42,4.42,0,0,1,381,356.94Z" style="fill:#fff;stroke:#263238;stroke-linecap:round;stroke-linejoin:round"></path></clipPath></defs></svg>